# xmcd
#
# Track frame offsets:
# 150
# 17374
# 30240
# 58435
# 73153
# 94064
# 147205
# 171556
# 193062
# 212077
# 235524
# 252928
# 268201
# 304493
#
# Disc length: 4239 seconds
#
#
# Revision: 0
# Processed by: cddbd v1.5.2PL0 Copyright (c) Steve Scherf et al.
# Submitted via: FreeRIP 2.945 
#
DISCID=cf108d0e
DTITLE=The New Bamberg Project - Apple Creek Valley
DYEAR=1999
DGENRE=Blues
TTITLE0=Intro
TTITLE1=Monkey business
TTITLE2=Six o clock blues
TTITLE3=Bad case of a blues
TTITLE4=Troubles
TTITLE5=Secrets
TTITLE6=The Call
TTITLE7=Love for sale
TTITLE8=Howlin at the moon
TTITLE9=Business as usual
TTITLE10=Dizzy thoughts
TTITLE11=South station
TTITLE12=Tribute to Jimi - All along the watchtower
TTITLE13=Drifting - meinem Vater
EXTD=www.nbp-blues.de\nKontakt: 06703-4958
EXTT0=
EXTT1=
EXTT2=
EXTT3=
EXTT4=
EXTT5=
EXTT6=
EXTT7=
EXTT8=
EXTT9=
EXTT10=
EXTT11=
EXTT12=
EXTT13=
PLAYORDER=
